<?xml version="1.0" encoding="UTF-8" standalone="no"?>
<svg
   xmlns:dc="http://purl.org/dc/elements/1.1/"
   xmlns:cc="http://creativecommons.org/ns#"
   xmlns:rdf="http://www.w3.org/1999/02/22-rdf-syntax-ns#"
   xmlns:svg="http://www.w3.org/2000/svg"
   xmlns="http://www.w3.org/2000/svg"
   xmlns:sodipodi="http://sodipodi.sourceforge.net/DTD/sodipodi-0.dtd"
   xmlns:inkscape="http://www.inkscape.org/namespaces/inkscape"
   width="1000"
   height="1000"
   viewBox="0 0 264.58333 264.58334"
   version="1.1"
   id="svg8"
   inkscape:version="1.0.1 (3bc2e813f5, 2020-09-07)"
   sodipodi:docname="SunnyLogo.svg">
  <defs
     id="defs2" />
  <sodipodi:namedview
     id="base"
     pagecolor="#ffffff"
     bordercolor="#666666"
     borderopacity="1.0"
     inkscape:pageopacity="0.0"
     inkscape:pageshadow="2"
     inkscape:zoom="2.2449457"
     inkscape:cx="342.13551"
     inkscape:cy="220.24935"
     inkscape:document-units="px"
     inkscape:current-layer="layer1"
     inkscape:document-rotation="0"
     showgrid="true"
     units="px"
     inkscape:pagecheckerboard="false"
     inkscape:window-width="1920"
     inkscape:window-height="1017"
     inkscape:window-x="-8"
     inkscape:window-y="-8"
     inkscape:window-maximized="1"
     inkscape:snap-text-baseline="false"
     inkscape:snap-grids="true"
     inkscape:snap-page="false">
    <inkscape:grid
       type="xygrid"
       id="grid10"
       spacingx="0.52916667"
       spacingy="0.52916667"
       dotted="false" />
  </sodipodi:namedview>
  <metadata
     id="metadata5">
    <rdf:RDF>
      <cc:Work
         rdf:about="">
        <dc:format>image/svg+xml</dc:format>
        <dc:type
           rdf:resource="http://purl.org/dc/dcmitype/StillImage" />
        <dc:title></dc:title>
      </cc:Work>
    </rdf:RDF>
  </metadata>
  <g
     inkscape:label="Layer 1"
     inkscape:groupmode="layer"
     id="layer1">
    <rect
       style="fill:none;fill-rule:evenodd;stroke:#000000;stroke-width:0.260335;stroke-opacity:1"
       id="rect12"
       width="92.472244"
       height="94.986153"
       x="31.881924"
       y="10.715257" />
    <g
       aria-label="S"
       transform="scale(0.78348507,1.2763485)"
       id="text102"
       style="font-style:normal;font-variant:normal;font-weight:normal;font-stretch:normal;font-size:101.035px;line-height:1.25;font-family:'Bauhaus 93';-inkscape-font-specification:'Bauhaus 93, Normal';font-variant-ligatures:normal;font-variant-caps:normal;font-variant-numeric:normal;font-variant-east-asian:normal;letter-spacing:0px;stroke-width:0.526221;fill:#ff5555">
      <path
         d="m 155.34225,10.364855 -47.27808,10.364854 c -1.44711,-0.493335 -23.264546,6.202842 -24.053882,6.202842 -1.512894,0 -11.536778,3.790994 -12.622115,4.90922 -1.085337,1.118226 -1.628006,2.466675 -1.628006,4.045347 0,1.348449 0.592002,3.058677 1.776006,5.130684 l 1.529339,2.664009 c 2.762676,4.801794 4.144014,9.439143 4.144014,13.912046 0,6.544911 -2.335119,12.086707 -7.005357,16.625389 -4.637349,4.538682 -10.310701,6.808023 -17.020057,6.808023 -3.223122,0 -6.125698,-6.993281 -9.283041,-8.473286 V 45.605361 c 1.907561,1.216893 4.501601,8.025127 4.94412,8.892066 1.809891,3.545759 3.039806,6.155107 4.190921,5.168437 1.184004,-1.019559 1.776006,-2.285785 1.776006,-3.798679 0,-0.98667 -0.937337,-3.140899 -2.81201,-6.462688 -2.992899,-5.26224 -8.250024,-14.956775 -8.250024,-20.219015 0,-6.347577 0.150987,-6.382802 6.904998,-12.601714 6.754011,-4.145942 13.563289,-6.251402 19.845088,-6.251402 2.762676,0 82.17807,-0.8884036 84.84208,0.03249 z"
         id="path126"
         style="fill:#ff5555"
         sodipodi:nodetypes="ccsssccscsccscscscsc" />
    </g>
    <text
       xml:space="preserve"
       style="font-style:normal;font-variant:normal;font-weight:normal;font-stretch:normal;font-size:86.3021px;line-height:1.25;font-family:'Bauhaus 93';-inkscape-font-specification:'Bauhaus 93, Normal';font-variant-ligatures:normal;font-variant-caps:normal;font-variant-numeric:normal;font-variant-east-asian:normal;letter-spacing:0px;stroke-width:0.449488;fill:#008080;"
       x="69.805771"
       y="93.652946"
       id="text102-6"
       transform="scale(0.91723675,1.0902311)"><tspan
         sodipodi:role="line"
         id="tspan122"
         x="69.805771"
         y="93.652946"
         style="stroke-width:0.449488;fill:#008080;">C</tspan></text>
  </g>
</svg>
